# xmcd
#
# Track frame offsets:
#       150
#       29483
#       53905
#       80419
#       105834
#       130149
#       153546
#       182985
#       209173
#       242075
#       274317
#       297790
#       318506
#
# Disc length: 4627 seconds
#
# Revision: 1
# Processed by: cddbd v1.5.2PL0 Copyright (c) Steve Scherf et al.
# Submitted via: WaveLab 4.01
#
DISCID=c012110d
DTITLE=Various Artist - DJJoker - Twilight
DYEAR=1900
DGENRE=
TTITLE0=Super8 and Tab - Suru (Martin Roth Electrance Remix)
TTITLE1=Filo and Peri - Something Special (Serge Devant Mix)
TTITLE2=Miikka Leinonen - Shadow Hearts (Estiva Remix)
TTITLE3=Gleave - Needlewerk (Original Mix)
TTITLE4=Sassot - Suddenly (Original Mix)
TTITLE5=Ron van den Beuken - Alcatraz (Robert Burns Remix)
TTITLE6=Basic Perspective - Chroma (Adymus Remix)
TTITLE7=Oxia - Domino (Sean Tyas Found Some Balls Rework)
TTITLE8=Johan Gielen - Magnitude (Fabian Steins Universal Journey Remix)
TTITLE9=Sean Tyas - One More Night Out (Original Mix)
TTITLE10=Stoneface and Terminal - Volcano (2AM Mix)
TTITLE11=Ultramax - Attracted To You (Digital Nature Hard Dub)
TTITLE12=Dave202 /Rain Against Her (Original Mix)
EXTD=
EXTT0=
EXTT1=
EXTT2=
EXTT3=
EXTT4=
EXTT5=
EXTT6=
EXTT7=
EXTT8=
EXTT9=
EXTT10=
EXTT11=
EXTT12=
PLAYORDER=
